<svg xmlns="http://www.w3.org/2000/svg" width="317.004" height="317.004" viewBox="0 0 83.874 83.874"><g aria-label="Stori Wyllt" style="font-size:29.6513px;font-family:Friem;-inkscape-font-specification:Friem;fill:#5477aa;stroke-width:1.18605" transform="translate(-146.761 21.121)scale(.35278)"><circle cx="534.893" cy="59.005" r="118.877" style="fill:#ea8632;stroke-width:2.25;stroke-linecap:round;stroke-linejoin:round;stop-color:#000"/><g style="fill:#fff"><path d="M257.918-244.462q0-3.232 2.194-5.308 2.224-2.075 5.19-2.075 2.105 0 4.002 1.067.178-.89.623-1.245.563-.297 1.423-.297 1.364 0 1.898.534.178.534.178 2.076 0 3.973-1.216 4.24-.504.148-.978.148-1.097 0-1.75-.445-.178-.445-.178-.978-1.008-.83-2.253-.83-1.275 0-2.254.89-.978.889-.978 1.956 0 1.75 2.58 1.75.266 0 1.452-.03 1.216-.03 1.483-.03 1.927 0 3.232 1.097t1.305 3.677q0 3.41-2.313 5.604-2.313 2.165-5.9 2.165-2.076 0-3.589-1.098 0 .742-.296 1.098-.534.296-1.75.296-1.304 0-1.779-.445-.178-1.097-.178-2.135 0-2.757 1.275-4.981.534-.208 1.098-.208 1.097 0 1.6.505.149.385.208 1.126.86 1.008 2.402 1.008 1.572 0 2.49-.593.92-.593.92-1.541 0-.534-.297-.86-.266-.356-.86-.504-.592-.178-1.008-.208-.385-.06-1.097-.089-.741-.03-1.186-.06-.445-.059-1.275-.207-.8-.148-1.334-.356-.504-.207-1.156-.593-.653-.415-1.038-.919-.356-.534-.623-1.364t-.267-1.838z" style="fill:#fff" transform="translate(-107.694 541.98)scale(2.12615)"/><path d="M274.879-244.966q0-.623.118-.741.83-.119 1.246-.119.178 0 .444.03h.653v-5.575q2.194-.178 2.668-.178 1.068 0 2.61.178l.296 5.634q2.313.089 2.847.415.385.504.385 2.758 0 .622-.118.74-.83.12-1.305.12h-.979q-.504-.03-1.245-.03 0 .148-.03 2.164v2.165q0 1.305.505 1.838.504.504 1.541.504.297 0 .356-.059.09-.089.119-.385 0-.208.682-.356l1.957-.475q.296.86.296 2.017 0 2.253-.385 2.757-.119.06-.475.267-.355.208-.474.267-.119.03-.445.178-.296.118-.504.148-.207.03-.593.09-.385.088-.83.088-.445.03-1.038.03-1.305 0-2.135-.149-.8-.118-1.571-.533-.742-.415-1.157-1.157-.415-.74-.741-2.016-.326-1.305-.445-3.084-.118-1.808-.118-4.388-1.305-.148-1.75-.386-.385-.504-.385-2.757M288.785-236.634q0-2.194 1.097-4.3 1.127-2.105 3.203-3.528 2.105-1.453 4.596-1.453 3.024 0 4.447 2.046t1.424 5.16q0 4.032-2.224 6.137-2.224 2.076-5.753 2.076-3.32 0-5.07-1.75-1.72-1.75-1.72-4.388m5.723-.86q0 .92.563 1.601.564.682 1.483.682 1.186 0 2.224-1.067 1.037-1.068 1.037-2.461 0-1.009-.593-1.66-.593-.683-1.541-.683-1.305 0-2.254 1.186-.92 1.157-.92 2.402M305.301-243.81q0-1.393.119-1.66 1.067-.534 4.27-.534 1.274 0 1.927.178.652.148 1.245.652-.03.504-.03 1.513l.09-.238q.118-.237.355-.563.267-.356.623-.682.356-.356 1.008-.593t1.453-.237q2.253 0 3.825 1.927-.623 2.787-3.291 3.914-1.068-.77-1.987-.77-1.186 0-1.868 1.185-.652 1.157-.652 2.876 0 .593.089 1.275.178 0 1.245.178l.385.06q.445.326.445 1.571 0 .89-.267 1.78-.266.889-.711 1.304-.593.118-3.41.118-1.453 0-2.995-.296-1.512-.326-1.69-.623-.09-.356-.09-1.66 0-2.343.238-2.52 1.245-.268 1.601-.268.297 0 .504.09-.266-.416-.266-4.3 0-1.334.089-1.512-.356.059-.653.059-1.067 0-1.482-.534-.119-.267-.119-1.69M320.75-233.254q0-1.453.592-1.69.267-.148 1.038-.267.534-.089.682-.089-.326-3.44-.326-4.388 0-2.076.297-2.728-.86 0-1.335-.119-.237-.622-.237-1.097 0-.92.8-2.105 1.098-.208 4.122-.208 1.038 0 2.016.119.979.119 1.513.296.563.149.563.297.237.356.237 1.097 0 1.572-.474 2.165-.09.118-.8.118-.712 0-1.009-.148-.326 2.076-.326 5.367 0 1.393.089 1.453.178-.03.504-.03.77 0 1.423.326.119.208.119.712 0 .741-.237 1.75-.238.978-.475 1.363-.474.267-3.173.267-4.329 0-5.01-.8-.594-.416-.594-1.661m2.964-18.473q0-.83.89-.83.741 0 1.601.445.623-.623 1.66-.623.653 0 1.157.445t.504 1.216q0 .385-.178.741-.148.356-.326.593t-.593.563q-.415.297-.652.445l-.771.445q-.564.296-.712.385-1.156-.86-1.868-1.927-.712-1.097-.712-1.898" style="font-weight:700;font-family:Gorditas;-inkscape-font-specification:&quot;Gorditas Bold&quot;;fill:#fff" transform="translate(-107.694 541.98)scale(2.12615)"/></g><g style="fill:#fff"><path d="M337.532-248.94q0-1.541.178-1.749.682-.8 4.863-.8 2.668 0 3.232.266.178.297.415 1.513.267 1.186.267 1.808 0 .386-.09.504-.652.327-1.423.327-.326 0-.504-.03.682 1.245 1.394 3.084t.741 3.202q.267-.267 1.127-1.216.89-.978 1.542-1.482t1.275-.504q.474 0 1.038.385.593.386.978.8.415.386 1.068 1.128.652.711.86.919.118-.979.474-2.076.385-1.127.92-2.372.562-1.275.74-1.75-.77-.266-1.512-.711-.385-.267-.385-1.72 0-1.542.178-1.75.266-.355 3.232-.355 3.617 0 4.862.296.682 1.157.682 2.936 0 .77-.089.89-.652.326-1.423.326-.326 0-.504-.03-.356 6.079-3.262 11.92.178.06.623.118.474.03.712.178.089.119.089.504 0 .623-.267 1.839-.237 1.186-.415 1.482-.149.267-2.402.267-3.914 0-4.507-.8-.178-.208-.178-1.75 0-1.423.178-1.6.208-.12.8-.238-.474-.534-1.274-1.78-.801-1.274-1.246-1.838-.445.564-1.245 1.81-.771 1.244-1.246 1.778.416.03 1.038.326.09.119.09.504 0 .623-.268 1.839-.237 1.186-.415 1.482-.504.267-3.32.267-1.958 0-2.61-.148-.623-.178-.978-.652-.208-.356-.208-1.868 0-1.275.208-1.483.355-.356 1.126-.356-2.965-6.345-3.261-11.682-.149 0-.682-.09-.771-.118-1.038-.266-.178-.178-.178-1.601M362.884-224.418q0-1.453.445-3.499.415-2.046.711-2.342.356-.148.8-.148 1.276 0 2.254.682.06 0 .06.444 0 .297-.03.475.415.089 1.127.267.711.178 1.038.267.355.089.86.177.533.09.978.119.445.06.949.06 2.46 0 3.558-1.127t1.334-3.825q-3.202 2.372-6.404 2.372-5.041 0-5.041-7.235 0-1.66.178-3.025-.03.03-.267.03-.445 0-1.394-.148-.356-.623-.356-2.076 0-1.69.386-2.372 2.224-.593 4.062-.593 2.046 0 3.558.534.682.77.682 2.253 0 1.335-.533 2.046-.327.208-.83.208-.149 0-.208-.03-.06-.03-.149-.06-.059-.059-.148-.088-.178.89-.178 1.927 0 1.72.8 2.64.801.918 1.958.918 1.245 0 2.164-1.038.95-1.067.95-2.876 0-.741-.179-1.571-.355.207-.919.207-.534 0-.652-.148-.475-.178-.475-1.75 0-1.6.475-1.867 1.423-1.009 5.218-1.009 3.292 0 4.152.682.089.356.089 1.186 0 1.661-.327 2.076-.177.267-.83.267-.385 0-.978-.297.03.653.148 2.076.148 1.423.237 2.758.09 1.334.09 2.49 0 3.084-.653 5.338-.652 2.253-1.809 3.498-1.156 1.275-2.52 1.839-1.364.593-2.995.593-1.66 0-2.61-.06-.948-.03-2.46-.326-1.483-.267-2.669-.86-.267.979-.326.979-.178.148-1.275.148-1.868 0-1.957-.237-.09-.356-.09-.949M384.974-233.343q0-1.423.178-1.601.267-.148 1.038-.267.534-.089.682-.089-.326-1.72-.326-5.782 0-4.774.296-8.45-.86 0-1.334-.12-.06-.592-.06-.948 0-1.305.623-2.253 1.275-.297 3.38-.297 1.602 0 2.432.297.326 2.727.326 5.87 0 2.195-.208 6.227-.207 4.033-.237 5.575.178-.03.504-.03.771 0 1.424.326.089.119.089.504 0 .623-.267 1.839-.238 1.186-.415 1.482-.475.267-3.203.267-4.062 0-4.744-.8-.178-.208-.178-1.75M394.996-233.343q0-1.423.178-1.601.267-.148 1.038-.267.534-.089.682-.089-.326-1.72-.326-5.782 0-4.774.296-8.45-.86 0-1.334-.12-.06-.592-.06-.948 0-1.305.623-2.253 1.275-.297 3.38-.297 1.602 0 2.432.297.326 2.727.326 5.87 0 2.195-.207 6.227-.208 4.033-.238 5.575.178-.03.504-.03.771 0 1.424.326.089.119.089.504 0 .623-.267 1.839-.237 1.186-.415 1.482-.475.267-3.203.267-4.062 0-4.744-.8-.178-.208-.178-1.75M404.336-244.966q0-.623.119-.741.83-.119 1.245-.119.178 0 .445.03h.652v-5.575q2.195-.178 2.669-.178 1.067 0 2.61.178l.296 5.634q2.313.089 2.846.415.386.504.386 2.758 0 .622-.119.74-.83.12-1.304.12h-.978q-.505-.03-1.246-.03 0 .148-.03 2.164v2.165q0 1.305.504 1.838.504.504 1.542.504.296 0 .356-.059.089-.089.118-.385 0-.208.682-.356l1.957-.475q.297.86.297 2.017 0 2.253-.386 2.757-.118.06-.474.267t-.474.267q-.119.03-.445.178-.297.118-.504.148t-.593.09q-.386.088-.83.088-.445.03-1.038.03-1.305 0-2.135-.149-.8-.118-1.572-.533-.741-.415-1.156-1.157-.415-.74-.741-2.016-.327-1.305-.445-3.084-.119-1.808-.119-4.388-1.304-.148-1.75-.386-.385-.504-.385-2.757" style="font-weight:700;font-family:Gorditas;-inkscape-font-specification:&quot;Gorditas Bold&quot;;fill:#fff" transform="translate(-253.62 594.277)scale(2.12615)"/></g></g></svg>