<?xml version="1.0" encoding="UTF-8" standalone="no"?>
<!-- Created with Inkscape (http://www.inkscape.org/) -->

<svg
   width="100mm"
   height="61.155186mm"
   viewBox="0 0 100 61.155185"
   version="1.1"
   id="svg680"
   inkscape:version="1.2.2 (b0a8486541, 2022-12-01)"
   sodipodi:docname="logo.svg"
   xmlns:inkscape="http://www.inkscape.org/namespaces/inkscape"
   xmlns:sodipodi="http://sodipodi.sourceforge.net/DTD/sodipodi-0.dtd"
   xmlns="http://www.w3.org/2000/svg"
   xmlns:svg="http://www.w3.org/2000/svg">
  <sodipodi:namedview
     id="namedview682"
     pagecolor="#ffffff"
     bordercolor="#000000"
     borderopacity="0.25"
     inkscape:showpageshadow="2"
     inkscape:pageopacity="0.0"
     inkscape:pagecheckerboard="0"
     inkscape:deskcolor="#d1d1d1"
     inkscape:document-units="mm"
     showgrid="false"
     inkscape:zoom="0.75722503"
     inkscape:cx="223.18333"
     inkscape:cy="-11.225197"
     inkscape:window-width="1920"
     inkscape:window-height="1024"
     inkscape:window-x="0"
     inkscape:window-y="0"
     inkscape:window-maximized="1"
     inkscape:current-layer="layer1" />
  <defs
     id="defs677" />
  <g
     inkscape:label="Layer 1"
     inkscape:groupmode="layer"
     id="layer1"
     transform="translate(-49.441608,-126.05604)">
    <g
       id="g1023"
       transform="matrix(1.2432194,0,0,1.2432194,-12.025157,-26.712051)">
      <path
         d="m 49.441607,130.2477 q 0,-2.87802 1.953881,-4.72628 1.980285,-1.84827 4.620665,-1.84827 1.87467,0 3.564513,0.95054 0.158423,-0.79211 0.55448,-1.10896 0.501672,-0.26404 1.267382,-0.26404 1.214575,0 1.689843,0.47527 0.158423,0.47527 0.158423,1.84827 0,3.53811 -1.082556,3.77574 -0.448864,0.13202 -0.871325,0.13202 -0.97694,0 -1.557824,-0.39606 -0.158423,-0.39606 -0.158423,-0.87132 -0.897729,-0.73931 -2.006689,-0.73931 -1.135363,0 -2.006688,0.79211 -0.871326,0.79212 -0.871326,1.74265 0,1.55783 2.297131,1.55783 0.237634,0 1.293786,-0.0264 1.082556,-0.0264 1.32019,-0.0264 1.716247,0 2.878014,0.97694 1.161767,0.97694 1.161767,3.27407 0,3.03644 -2.059496,4.99032 -2.059496,1.92748 -5.254356,1.92748 -1.848266,0 -3.19486,-0.97694 0,0.66009 -0.264038,0.97694 -0.475268,0.26404 -1.557824,0.26404 -1.161767,0 -1.584228,-0.39606 -0.158423,-0.97694 -0.158423,-1.90107 0,-2.45556 1.135364,-4.43584 0.475268,-0.18483 0.97694,-0.18483 0.976941,0 1.425805,0.44887 0.132019,0.34324 0.184827,1.00334 0.76571,0.89773 2.138708,0.89773 1.399401,0 2.217919,-0.52808 0.818518,-0.52807 0.818518,-1.37299 0,-0.47527 -0.264038,-0.76571 -0.237635,-0.31685 -0.765711,-0.44887 -0.528076,-0.15842 -0.897729,-0.18483 -0.343249,-0.0528 -0.97694,-0.0792 -0.660095,-0.0264 -1.056152,-0.0528 -0.396057,-0.0528 -1.135364,-0.18483 -0.712902,-0.13202 -1.188171,-0.31685 -0.448864,-0.18482 -1.029748,-0.52807 -0.580883,-0.36966 -0.924133,-0.81852 -0.316845,-0.47527 -0.55448,-1.21458 -0.237634,-0.7393 -0.237634,-1.63703 z"
         style="font-size:26.4038px;line-height:0.1;font-family:Friem;-inkscape-font-specification:Friem;fill:#5477aa;stroke-width:1.05614"
         id="path980" />
      <path
         d="m 64.544589,129.79883 q 0,-0.55448 0.105615,-0.66009 0.739307,-0.10562 1.10896,-0.10562 0.158423,0 0.396057,0.0264 0.237634,0 0.396057,0 h 0.184827 v -4.96392 q 1.953881,-0.15842 2.376341,-0.15842 0.950537,0 2.323535,0.15842 l 0.264038,5.01673 q 2.059496,0.0792 2.534764,0.36965 0.34325,0.44886 0.34325,2.45555 0,0.55448 -0.105615,0.6601 -0.739307,0.10561 -1.161768,0.10561 h -0.21123 q -0.184826,0 -0.660095,0 -0.448864,-0.0264 -1.108959,-0.0264 0,0.13202 -0.0264,1.92748 0,1.76905 0,1.92747 0,1.16177 0.448864,1.63704 0.448865,0.44886 1.372998,0.44886 0.264038,0 0.316845,-0.0528 0.07921,-0.0792 0.105616,-0.34325 0,-0.18483 0.607287,-0.31685 l 1.742651,-0.42246 q 0.264038,0.76571 0.264038,1.79546 0,2.00669 -0.34325,2.45555 -0.105615,0.0528 -0.42246,0.23764 -0.316846,0.18482 -0.422461,0.23763 -0.105615,0.0264 -0.396057,0.15842 -0.264038,0.10562 -0.448865,0.13202 -0.184826,0.0264 -0.528076,0.0792 -0.343249,0.0792 -0.739306,0.0792 -0.396057,0.0264 -0.924133,0.0264 -1.161767,0 -1.901074,-0.13202 -0.712902,-0.10562 -1.399401,-0.47527 -0.660095,-0.36965 -1.029748,-1.02975 -0.369653,-0.66009 -0.660095,-1.79546 -0.290442,-1.16176 -0.396057,-2.74599 -0.105615,-1.61063 -0.105615,-3.90776 -1.161767,-0.13202 -1.557824,-0.34325 -0.34325,-0.44887 -0.34325,-2.45556 z"
         style="font-weight:bold;font-size:26.4038px;line-height:264.038px;font-family:Gorditas;-inkscape-font-specification:'Gorditas Bold';fill:#5477aa;stroke-width:1.05614"
         id="path982" />
      <path
         d="m 76.927955,137.2183 q 0,-1.95388 0.97694,-3.82855 1.003345,-1.87467 2.851611,-3.14205 1.874669,-1.29379 4.092588,-1.29379 2.693188,0 3.96057,1.82186 1.267383,1.82187 1.267383,4.59427 0,3.59091 -1.980285,5.46558 -1.980285,1.84827 -5.122337,1.84827 -2.957226,0 -4.51505,-1.55783 -1.53142,-1.55782 -1.53142,-3.90776 z m 5.095933,-0.76571 q 0,0.81852 0.501672,1.42581 0.501672,0.60728 1.32019,0.60728 1.056152,0 1.980285,-0.95053 0.924133,-0.95054 0.924133,-2.19152 0,-0.89773 -0.528076,-1.47861 -0.528076,-0.60729 -1.372998,-0.60729 -1.161767,0 -2.006688,1.05615 -0.818518,1.02975 -0.818518,2.13871 z"
         style="font-weight:bold;font-size:26.4038px;line-height:264.038px;font-family:Gorditas;-inkscape-font-specification:'Gorditas Bold';fill:#5477aa;stroke-width:1.05614"
         id="path984" />
      <path
         d="m 91.634894,130.82858 q 0,-1.24098 0.105615,-1.47861 0.950537,-0.47527 3.802148,-0.47527 1.135363,0 1.716246,0.15842 0.580884,0.13202 1.10896,0.58089 -0.0264,0.44886 -0.0264,1.34659 l 0.07921,-0.21123 q 0.105615,-0.21123 0.316845,-0.50167 0.237634,-0.31685 0.55448,-0.60729 0.316846,-0.31684 0.897732,-0.52807 0.58088,-0.21123 1.29378,-0.21123 2.00669,0 3.40609,1.71624 -0.55448,2.48196 -2.93082,3.4853 -0.95054,-0.6865 -1.76905,-0.6865 -1.056155,0 -1.663442,1.05616 -0.580884,1.02974 -0.580884,2.56117 0,0.52807 0.07921,1.13536 0.158422,0 1.108959,0.15842 l 0.34325,0.0528 q 0.396057,0.29044 0.396057,1.3994 0,0.79211 -0.237635,1.58423 -0.237634,0.79211 -0.633691,1.16177 -0.528076,0.10561 -3.036437,0.10561 -1.293786,0 -2.666783,-0.26404 -1.346594,-0.29044 -1.505017,-0.55448 -0.07921,-0.31684 -0.07921,-1.47861 0,-2.0859 0.21123,-2.24432 1.10896,-0.23764 1.425805,-0.23764 0.264038,0 0.448865,0.0792 -0.237634,-0.36965 -0.237634,-3.82855 0,-1.18817 0.07921,-1.34659 -0.316846,0.0528 -0.580884,0.0528 -0.950536,0 -1.32019,-0.47527 -0.105615,-0.23764 -0.105615,-1.50502 z"
         style="font-weight:bold;font-size:26.4038px;line-height:264.038px;font-family:Gorditas;-inkscape-font-specification:'Gorditas Bold';fill:#5477aa;stroke-width:1.05614"
         id="path986" />
      <path
         d="m 105.3913,140.22833 q 0,-1.29378 0.52807,-1.50501 0.23764,-0.13202 0.92414,-0.23764 0.47527,-0.0792 0.60728,-0.0792 -0.29044,-3.06284 -0.29044,-3.90776 0,-1.84827 0.26404,-2.42915 -0.76571,0 -1.18817,-0.10561 -0.21123,-0.55448 -0.21123,-0.97694 0,-0.81852 0.7129,-1.87467 0.97694,-0.18483 3.67013,-0.18483 0.92413,0 1.79546,0.10561 0.87132,0.10562 1.34659,0.26404 0.50167,0.13202 0.50167,0.26404 0.21123,0.31685 0.21123,0.97694 0,1.3994 -0.42246,1.92748 -0.0792,0.10561 -0.7129,0.10561 -0.63369,0 -0.89773,-0.13202 -0.29044,1.84827 -0.29044,4.77909 0,1.24098 0.0792,1.29379 0.15842,-0.0264 0.44887,-0.0264 0.6865,0 1.26738,0.29045 0.10561,0.18482 0.10561,0.63369 0,0.66009 -0.21123,1.55782 -0.21123,0.87133 -0.42246,1.21458 -0.42246,0.23763 -2.8252,0.23763 -3.85496,0 -4.46225,-0.7129 -0.52807,-0.36966 -0.52807,-1.47862 z m 2.64038,-16.44956 q 0,-0.73931 0.79211,-0.73931 0.6601,0 1.42581,0.39606 0.55448,-0.55448 1.47861,-0.55448 0.58088,0 1.02975,0.39606 0.44886,0.39605 0.44886,1.08255 0,0.34325 -0.15842,0.6601 -0.13202,0.31684 -0.29044,0.52807 -0.15842,0.21123 -0.52808,0.50167 -0.36965,0.26404 -0.58088,0.39606 -0.18483,0.10562 -0.6865,0.39606 -0.50167,0.26404 -0.63369,0.34325 -1.02975,-0.76571 -1.66344,-1.71625 -0.63369,-0.97694 -0.63369,-1.68984 z"
         style="font-weight:bold;font-size:26.4038px;line-height:264.038px;font-family:Gorditas;-inkscape-font-specification:'Gorditas Bold';fill:#5477aa;stroke-width:1.05614"
         id="path988" />
    </g>
    <g
       id="g1016"
       transform="matrix(1.2432194,0,0,1.2432194,0.36301496,-326.6069)">
      <path
         d="m 48.807916,390.29872 q 0,-1.373 0.158423,-1.55783 0.607287,-0.7129 4.330223,-0.7129 2.376342,0 2.878014,0.23763 0.158423,0.26404 0.369653,1.3466 0.237634,1.05615 0.237634,1.61063 0,0.34325 -0.07921,0.44886 -0.580884,0.29045 -1.267382,0.29045 -0.290442,0 -0.448865,-0.0264 0.607287,1.10896 1.240979,2.746 0.633691,1.63703 0.660095,2.85161 0.237634,-0.23764 1.003344,-1.08256 0.792114,-0.87132 1.372998,-1.32019 0.580883,-0.44886 1.135363,-0.44886 0.422461,0 0.924133,0.34325 0.528076,0.34325 0.871325,0.7129 0.369653,0.34325 0.950537,1.00334 0.580884,0.63369 0.76571,0.81852 0.105615,-0.87132 0.422461,-1.84827 0.343249,-1.00334 0.818518,-2.1123 0.501672,-1.13536 0.660095,-1.55782 -0.686499,-0.23764 -1.346594,-0.63369 -0.343249,-0.23764 -0.343249,-1.53143 0,-1.37299 0.158422,-1.55782 0.237635,-0.31684 2.878014,-0.31684 3.221264,0 4.330224,0.26403 0.607287,1.02975 0.607287,2.61398 0,0.6865 -0.07921,0.79211 -0.580883,0.29045 -1.267382,0.29045 -0.290442,0 -0.448864,-0.0264 -0.316846,5.41278 -2.904418,10.61433 0.158422,0.0528 0.554479,0.10561 0.422461,0.0264 0.633692,0.15843 0.07921,0.10561 0.07921,0.44886 0,0.55448 -0.237634,1.63704 -0.211231,1.05615 -0.369653,1.32019 -0.132019,0.23763 -2.138708,0.23763 -3.485302,0 -4.013378,-0.7129 -0.158422,-0.18483 -0.158422,-1.55783 0,-1.26738 0.158422,-1.4258 0.184827,-0.10562 0.712903,-0.21123 -0.422461,-0.47527 -1.135363,-1.58423 -0.712903,-1.13536 -1.10896,-1.63704 -0.396057,0.50168 -1.108959,1.61064 -0.686499,1.10896 -1.10896,1.58422 0.369653,0.0264 0.924133,0.29045 0.07921,0.10561 0.07921,0.44886 0,0.55448 -0.237634,1.63704 -0.21123,1.05615 -0.369653,1.32019 -0.448865,0.23763 -2.957226,0.23763 -1.74265,0 -2.323534,-0.13202 -0.55448,-0.15842 -0.871325,-0.58088 -0.184827,-0.31685 -0.184827,-1.66344 0,-1.13536 0.184827,-1.32019 0.316845,-0.31685 1.003344,-0.31685 -2.64038,-5.65041 -2.904418,-10.40309 -0.132019,0 -0.607287,-0.0792 -0.686499,-0.10562 -0.924133,-0.23764 -0.158423,-0.15842 -0.158423,-1.4258 z"
         style="font-weight:bold;font-size:26.4038px;line-height:264.038px;font-family:Gorditas;-inkscape-font-specification:'Gorditas Bold';fill:#5477aa;stroke-width:1.05614"
         id="path990" />
      <path
         d="m 71.383185,412.13466 q 0,-1.29379 0.396057,-3.11565 0.369653,-1.82186 0.633691,-2.0859 0.316845,-0.13202 0.712902,-0.13202 1.135364,0 2.006689,0.60729 0.05281,0 0.05281,0.39605 0,0.26404 -0.0264,0.42247 0.369653,0.0792 1.003344,0.23763 0.633691,0.15842 0.924133,0.23763 0.316846,0.0792 0.76571,0.15843 0.475269,0.0792 0.871326,0.10561 0.396057,0.0528 0.844921,0.0528 2.191516,0 3.168456,-1.00335 0.976941,-1.00334 1.188171,-3.40609 -2.85161,2.11231 -5.70322,2.11231 -4.488646,0 -4.488646,-6.44253 0,-1.47861 0.158422,-2.69319 -0.0264,0.0264 -0.237634,0.0264 -0.396057,0 -1.240978,-0.13202 -0.316846,-0.55448 -0.316846,-1.84827 0,-1.50501 0.34325,-2.1123 1.980284,-0.52808 3.61732,-0.52808 1.821862,0 3.168456,0.47527 0.607287,0.6865 0.607287,2.00669 0,1.18817 -0.475268,1.82186 -0.290442,0.18483 -0.739306,0.18483 -0.132019,0 -0.184827,-0.0264 -0.05281,-0.0264 -0.132019,-0.0528 -0.05281,-0.0528 -0.132019,-0.0792 -0.158423,0.79211 -0.158423,1.71624 0,1.53142 0.712903,2.34994 0.712902,0.81852 1.74265,0.81852 1.10896,0 1.927478,-0.92413 0.844921,-0.95054 0.844921,-2.56117 0,-0.6601 -0.158422,-1.3994 -0.316846,0.18482 -0.818518,0.18482 -0.475269,0 -0.580884,-0.13202 -0.422461,-0.15842 -0.422461,-1.55782 0,-1.42581 0.422461,-1.66344 1.267383,-0.89773 4.647069,-0.89773 2.930822,0 3.696532,0.60729 0.07921,0.31684 0.07921,1.05615 0,1.47861 -0.290442,1.84827 -0.158422,0.23763 -0.739306,0.23763 -0.343249,0 -0.871325,-0.26404 0.0264,0.58089 0.132019,1.84827 0.132019,1.26738 0.21123,2.45555 0.07921,1.18817 0.07921,2.21792 0,2.746 -0.580883,4.75268 -0.580884,2.00669 -1.610632,3.11565 -1.029748,1.13537 -2.244323,1.63704 -1.214575,0.52807 -2.666784,0.52807 -1.478612,0 -2.323534,-0.0528 -0.844921,-0.0264 -2.191515,-0.29044 -1.32019,-0.23764 -2.376342,-0.76571 -0.237634,0.87132 -0.290442,0.87132 -0.158423,0.13202 -1.135363,0.13202 -1.66344,0 -1.742651,-0.21123 -0.07921,-0.31685 -0.07921,-0.84492 z"
         style="font-weight:bold;font-size:26.4038px;line-height:264.038px;font-family:Gorditas;-inkscape-font-specification:'Gorditas Bold';fill:#5477aa;stroke-width:1.05614"
         id="path992" />
      <path
         d="m 91.05402,404.18711 q 0,-1.26738 0.158423,-1.4258 0.237634,-0.13202 0.924133,-0.23764 0.475269,-0.0792 0.607288,-0.0792 -0.290442,-1.53142 -0.290442,-5.14874 0,-4.25101 0.264038,-7.52508 -0.76571,0 -1.188171,-0.10562 -0.05281,-0.52807 -0.05281,-0.84492 0,-1.16176 0.55448,-2.00669 1.135363,-0.26403 3.010033,-0.26403 1.425805,0 2.165112,0.26403 0.290441,2.42915 0.290441,5.22796 0,1.95388 -0.184826,5.54479 -0.184827,3.59092 -0.211231,4.96392 0.158423,-0.0264 0.448865,-0.0264 0.686499,0 1.267382,0.29045 0.07921,0.10561 0.07921,0.44886 0,0.55448 -0.237634,1.63704 -0.211231,1.05615 -0.369654,1.32019 -0.42246,0.23763 -2.85161,0.23763 -3.61732,0 -4.224608,-0.7129 -0.158423,-0.18483 -0.158423,-1.55783 z"
         style="font-weight:bold;font-size:26.4038px;line-height:264.038px;font-family:Gorditas;-inkscape-font-specification:'Gorditas Bold';fill:#5477aa;stroke-width:1.05614"
         id="path994" />
      <path
         d="m 99.978489,404.18711 q 0,-1.26738 0.158421,-1.4258 0.23764,-0.13202 0.92414,-0.23764 0.47526,-0.0792 0.60728,-0.0792 -0.29044,-1.53142 -0.29044,-5.14874 0,-4.25101 0.26404,-7.52508 -0.76571,0 -1.18817,-0.10562 -0.0528,-0.52807 -0.0528,-0.84492 0,-1.16176 0.55448,-2.00669 1.13536,-0.26403 3.01003,-0.26403 1.42581,0 2.16511,0.26403 0.29045,2.42915 0.29045,5.22796 0,1.95388 -0.18483,5.54479 -0.18483,3.59092 -0.21123,4.96392 0.15842,-0.0264 0.44886,-0.0264 0.6865,0 1.26739,0.29045 0.0792,0.10561 0.0792,0.44886 0,0.55448 -0.23764,1.63704 -0.21123,1.05615 -0.36965,1.32019 -0.42246,0.23763 -2.85161,0.23763 -3.61732,0 -4.22461,-0.7129 -0.158421,-0.18483 -0.158421,-1.55783 z"
         style="font-weight:bold;font-size:26.4038px;line-height:264.038px;font-family:Gorditas;-inkscape-font-specification:'Gorditas Bold';fill:#5477aa;stroke-width:1.05614"
         id="path996" />
      <path
         d="m 108.29567,393.83682 q 0,-0.55447 0.10562,-0.66009 0.7393,-0.10562 1.10896,-0.10562 0.15842,0 0.39605,0.0264 0.23764,0 0.39606,0 h 0.18483 v -4.96392 q 1.95388,-0.15842 2.37634,-0.15842 0.95054,0 2.32353,0.15842 l 0.26404,5.01673 q 2.0595,0.0792 2.53477,0.36965 0.34325,0.44886 0.34325,2.45555 0,0.55448 -0.10562,0.6601 -0.73931,0.10561 -1.16177,0.10561 h -0.21123 q -0.18482,0 -0.66009,0 -0.44887,-0.0264 -1.10896,-0.0264 0,0.13202 -0.0264,1.92748 0,1.76905 0,1.92747 0,1.16177 0.44886,1.63704 0.44886,0.44886 1.373,0.44886 0.26404,0 0.31684,-0.0528 0.0792,-0.0792 0.10562,-0.34325 0,-0.18483 0.60729,-0.31685 l 1.74265,-0.42246 q 0.26403,0.76571 0.26403,1.79546 0,2.00669 -0.34325,2.45555 -0.10561,0.0528 -0.42246,0.23764 -0.31684,0.18482 -0.42246,0.23763 -0.10561,0.0264 -0.39605,0.15842 -0.26404,0.10562 -0.44887,0.13202 -0.18482,0.0264 -0.52807,0.0792 -0.34325,0.0792 -0.73931,0.0792 -0.39606,0.0264 -0.92413,0.0264 -1.16177,0 -1.90108,-0.13202 -0.7129,-0.10562 -1.3994,-0.47527 -0.66009,-0.36965 -1.02975,-1.02975 -0.36965,-0.66009 -0.66009,-1.79546 -0.29044,-1.16176 -0.39606,-2.74599 -0.10561,-1.61063 -0.10561,-3.90776 -1.16177,-0.13202 -1.55783,-0.34325 -0.34325,-0.44887 -0.34325,-2.45556 z"
         style="font-weight:bold;font-size:26.4038px;line-height:264.038px;font-family:Gorditas;-inkscape-font-specification:'Gorditas Bold';fill:#5477aa;stroke-width:1.05614"
         id="path998" />
    </g>
  </g>
</svg>
